<?xml version="1.0" encoding="utf-8"?>
<!-- Generator: Adobe Illustrator 28.3.0, SVG Export Plug-In . SVG Version: 6.00 Build 0)  -->
<svg version="1.1" id="Layer_1" xmlns="http://www.w3.org/2000/svg" xmlns:xlink="http://www.w3.org/1999/xlink" x="0px" y="0px"
	 viewBox="0 0 685.41 602.59" style="enable-background:new 0 0 685.41 602.59;" xml:space="preserve">
<style type="text/css">
	.st0{fill:#FFFFFF;stroke:#FFFFFF;stroke-width:4;stroke-miterlimit:10;}
</style>
<g>
	<path class="st0" d="M621.61,319.86c-1.35,9.19-2.49,18.41-4.09,27.56c-8.82,50.46-30.72,94.63-65.18,132.39
		c-39.66,43.46-88.5,71.48-146.37,82.22c-71.89,13.34-138.95-0.13-199.4-41.55c-60.02-41.12-97.79-97.91-111.42-169.43
		c-13.66-71.63,0.04-138.57,41.23-198.91c39.89-58.44,95.01-95.36,164.23-110.71c10.58-2.35,21.48-3.22,32.22-4.81
		c1.51-0.22,2.99-0.66,4.48-1c12.45,0,24.9,0,37.35,0c8.51,1.16,17.08,2.04,25.53,3.52c49.23,8.62,92.95,29.08,130.44,62.16
		c46.5,41.01,75.71,92.04,86.81,153.18c1.69,9.29,2.79,18.7,4.16,28.05C621.61,294.96,621.61,307.41,621.61,319.86z M596.72,301.13
		c-0.01-132.2-108.05-240.36-240.4-240.65C224,60.2,115.45,168.48,115.25,300.96c-0.2,132.3,108.2,240.82,240.63,240.92
		C488.26,541.98,596.73,433.54,596.72,301.13z"/>
	<path class="st0" d="M437.87,456.51c-24.67-0.63-45.82-7.51-65.5-18.33c-69.94-38.45-123.85-92.6-158.84-164.77
		c-7.42-15.31-11.91-31.65-12.7-48.78c-0.85-18.44,3.41-35.37,15.92-49.46c3.15-3.55,6.92-7.08,11.14-9.07
		c14.02-6.6,28.15-13.11,42.68-18.47c13.44-4.97,28.49,0.77,36.06,13.24c10.39,17.11,20.48,34.44,30.01,52.04
		c7.79,14.39,2.82,31.87-10.73,41.23c-1.99,1.37-4.09,2.6-5.99,4.08c-8.17,6.39-10.45,17.02-4.33,25.37
		c16.26,22.16,35.61,41.41,57.67,57.79c8.66,6.43,19.57,4,26.1-4.71c1.24-1.66,2.3-3.44,3.47-5.16
		c9.34-13.81,26.95-18.84,41.57-10.91c17.6,9.54,34.94,19.6,52.04,30.02c12.73,7.76,18.03,23.11,12.84,37.13
		c-4.72,12.76-10.01,25.36-15.95,37.6c-9.22,18.98-26.03,27.26-45.97,30.36C443.61,456.29,439.78,456.36,437.87,456.51z
		 M224.77,220.64c1.22,15.02,6.05,32.36,15.49,51.14c17.36,34.56,41.56,63.94,69.41,90.42c24.54,23.33,51.25,43.73,82.34,57.76
		c16.03,7.24,32.6,12.71,50.52,10.97c13.46-1.3,24.61-6.61,30.18-20.09c3.89-9.4,7.96-18.72,11.8-28.14
		c2.7-6.62,1.72-9.29-4.37-12.81c-14.35-8.3-28.71-16.57-43.07-24.84c-8.21-4.73-10.27-4.23-15.57,3.74
		c-15.5,23.26-43.7,27.96-65.88,10.84c-21.45-16.56-40.53-35.55-57.18-56.92c-18.55-23.82-13.91-51.22,11.3-67.89
		c5.91-3.91,6.78-6.99,3.35-12.98c-8.67-15.13-17.4-30.22-26.17-45.29c-3.16-5.43-5.86-6.47-11.57-4.16
		c-10.23,4.14-20.35,8.53-30.54,12.77c-7.1,2.96-12.21,8.13-14.75,15.17C227.69,206.89,226.49,213.86,224.77,220.64z"/>
	<path class="st0" d="M225.4,220.58c1.71-6.79,2.92-13.75,5.28-20.31c2.54-7.04,7.64-12.22,14.75-15.17
		c10.19-4.24,20.31-8.63,30.54-12.77c5.71-2.31,8.41-1.27,11.57,4.16c8.77,15.07,17.5,30.17,26.17,45.29
		c3.43,5.98,2.56,9.07-3.35,12.98c-25.2,16.67-29.85,44.07-11.3,67.89c16.65,21.37,35.74,40.36,57.18,56.92
		c22.17,17.12,50.37,12.42,65.88-10.84c5.31-7.96,7.36-8.46,15.57-3.74c14.36,8.27,28.72,16.54,43.07,24.84
		c6.09,3.52,7.08,6.19,4.37,12.81c-3.84,9.42-7.92,18.74-11.8,28.14c-5.57,13.48-16.73,18.79-30.18,20.09
		c-17.93,1.74-34.5-3.73-50.52-10.97c-31.08-14.04-57.8-34.43-82.34-57.76c-27.85-26.48-52.05-55.85-69.41-90.42
		C231.46,252.94,226.62,235.6,225.4,220.58z"/>
</g>
</svg>
