<?xml version="1.0" encoding="utf-8"?>
<!-- Generator: Adobe Illustrator 28.3.0, SVG Export Plug-In . SVG Version: 6.00 Build 0)  -->
<svg version="1.1" id="Layer_1" xmlns="http://www.w3.org/2000/svg" xmlns:xlink="http://www.w3.org/1999/xlink" x="0px" y="0px"
	 viewBox="0 0 685.41 602.59" style="enable-background:new 0 0 685.41 602.59;" xml:space="preserve">
<style type="text/css">
	.st0{fill:#FFFFFF;}
</style>
<g>
	<path class="st0" d="M596.96,310.41c-1.35,9.21-2.5,18.46-4.1,27.63c-8.84,50.61-30.81,94.9-65.36,132.77
		c-39.77,43.59-88.75,71.69-146.78,82.46c-72.1,13.38-139.35-0.13-199.97-41.67c-60.19-41.24-98.06-98.19-111.74-169.9
		c-13.67-71.64-0.03-138.63,41.05-199.05c40.01-58.84,95.38-96.01,164.99-111.45c10.6-2.35,21.54-3.23,32.31-4.83
		c1.52-0.22,3-0.66,4.5-1.01c12.49,0,24.97,0,37.46,0c8.54,1.16,17.12,2.05,25.61,3.53c49.37,8.64,93.21,29.17,130.81,62.33
		c46.63,41.13,75.92,92.3,87.06,153.61c1.69,9.32,2.79,18.75,4.17,28.13C596.96,285.44,596.96,297.93,596.96,310.41z M330.34,50.31
		C197.46,50.52,88.92,159.32,89.17,292.05c0.25,132.61,108.79,240.98,241.38,241.02C463.33,533.1,572.09,424.31,572,291.57
		C571.92,158.76,463.07,50.09,330.34,50.31z"/>
	<path class="st0" d="M325.92,130.77c65.22,0.07,117.09,45.65,125.23,105.3c3.54,25.93-3.9,49.29-14.92,72.01
		c-17.55,36.19-40.95,68.61-65.12,100.52c-9.73,12.84-19.77,25.45-29.81,38.04c-6.27,7.86-14.98,8.03-21.14,0.32
		c-29.08-36.41-57.82-73.11-81.19-113.57c-7.85-13.59-14.77-27.8-21.01-42.21c-14.96-34.55-10.89-68.28,7.89-99.95
		C249.27,151.77,285.06,132.43,325.92,130.77z M330.58,420.21c11.54-15.18,22.55-29.21,33.08-43.6c19.75-27,38.56-54.61,52.6-85.15
		c8.1-17.61,12.61-35.58,9.32-55.34c-8.26-49.68-55.95-85.55-105.95-79.63c-61.83,7.32-104.83,74.01-75.72,132.7
		c14.77,29.78,32.3,57.67,51.71,84.48C306.77,389.08,318.46,404.11,330.58,420.21z"/>
	<path class="st0" d="M330.38,326.36c-41.18-0.17-74.03-33.41-73.76-74.65c0.27-41.32,33.49-73.62,75.48-73.39
		c39.89,0.22,72.61,33.79,72.46,74.33C404.41,293.57,371.23,326.53,330.38,326.36z M330.56,301.16
		c27.04,0.01,48.97-21.85,48.98-48.8c0.01-26.87-22.09-49.03-48.92-49.05c-26.82-0.02-48.97,22.14-48.97,48.99
		C281.64,279.28,303.53,301.15,330.56,301.16z"/>
</g>
</svg>
