<?xml version="1.0" encoding="utf-8"?>
<!-- Generator: Adobe Illustrator 28.3.0, SVG Export Plug-In . SVG Version: 6.00 Build 0)  -->
<svg version="1.1" id="Layer_1" xmlns="http://www.w3.org/2000/svg" xmlns:xlink="http://www.w3.org/1999/xlink" x="0px" y="0px"
	 viewBox="0 0 685.41 602.59" style="enable-background:new 0 0 685.41 602.59;" xml:space="preserve">
<style type="text/css">
	.st0{fill:#FFFFFF;stroke:#FFFFFF;stroke-width:4;stroke-miterlimit:10;}
	.st1{fill:#FFFFFF;}
</style>
<g>
	<path class="st0" d="M608.49,330.1c-1.35,9.19-2.49,18.41-4.09,27.56c-8.82,50.46-30.72,94.63-65.18,132.39
		c-39.66,43.46-88.5,71.48-146.37,82.22c-71.89,13.34-138.95-0.13-199.4-41.55c-60.02-41.12-97.79-97.91-111.42-169.43
		c-13.66-71.63,0.04-138.57,41.23-198.91c39.89-58.44,95.01-95.36,164.23-110.71c10.58-2.35,21.48-3.22,32.22-4.81
		c1.51-0.22,2.99-0.66,4.48-1c12.45,0,24.9,0,37.35,0c8.51,1.16,17.08,2.04,25.53,3.52c49.23,8.62,92.95,29.08,130.44,62.16
		c46.5,41.01,75.71,92.04,86.81,153.18c1.69,9.29,2.79,18.7,4.16,28.05C608.49,305.2,608.49,317.65,608.49,330.1z M583.6,311.38
		c-0.01-132.2-108.05-240.36-240.4-240.65c-132.33-0.28-240.87,107.99-241.07,240.48c-0.2,132.3,108.2,240.82,240.63,240.92
		C475.14,552.22,583.61,443.79,583.6,311.38z"/>
</g>
<g>
	<path class="st1" d="M497.61,228.17c0,2.84,0,4.55,0,6.26c0,57.74,0,115.47,0,173.21c0,10.67-2.92,13.55-13.68,13.55
		c-94.42,0-188.84,0-283.26,0c-11.05,0-13.84-2.79-13.84-13.86c-0.01-57.58,0-115.15,0-172.73c0-1.74,0-3.48,0-5.19
		c2.27-0.69,3.12,1.05,4.24,1.94c47.47,37.62,94.89,75.29,142.34,112.92c6.76,5.36,10.82,5.42,17.48,0.14
		c47.45-37.62,94.87-75.29,142.31-112.93C494.29,230.61,495.43,229.79,497.61,228.17z"/>
	<path class="st1" d="M475.51,216.94c-6.1,4.88-11.39,9.13-16.7,13.35c-37.82,30.02-75.66,60-113.4,90.11
		c-2.47,1.97-3.82,2.01-6.33,0.02c-42.1-33.59-84.3-67.05-126.47-100.55c-0.96-0.76-2.21-1.27-2.72-2.93
		C298.08,216.94,386.15,216.94,475.51,216.94z"/>
</g>
</svg>
